<svg width="184" height="56" viewBox="0 0 184 56" fill="none" xmlns="http://www.w3.org/2000/svg"><g clip-path="url(#clip0)"><path d="M177.185 55.453H6.815C3 55.453.002 52.419.002 48.558V7.193C.001 3.333 2.999.3 6.816.3h170.369C181.001.3 184 3.333 184 7.194v41.365c0 3.861-2.999 6.895-6.815 6.895z" fill="#fff"/><path d="M177.185 1.392c3.135 0 5.725 2.62 5.725 5.791V48.55c0 3.171-2.59 5.79-5.725 5.79H6.815c-3.134 0-5.724-2.619-5.724-5.79V7.183c0-3.17 2.59-5.79 5.725-5.79h170.369zm0-1.103H6.815C3 .29.002 3.461.002 7.183V48.55c0 3.86 2.998 6.894 6.815 6.894h170.369c3.816 0 6.815-3.034 6.815-6.894V7.183c0-3.722-2.999-6.894-6.815-6.894z" fill="#fff"/><path d="M64.404 14.747c0 1.035-.268 1.942-.938 2.589-.804.776-1.742 1.165-2.948 1.165s-2.144-.389-2.949-1.165c-.804-.777-1.206-1.683-1.206-2.848 0-1.165.402-2.071 1.206-2.848.805-.776 1.743-1.165 2.949-1.165.536 0 1.072.13 1.608.389s.938.518 1.206.906l-.67.647c-.536-.647-1.206-.906-2.144-.906-.804 0-1.608.259-2.144.906-.67.518-.939 1.294-.939 2.2 0 .906.268 1.683.939 2.2.67.519 1.34.907 2.144.907.938 0 1.608-.259 2.278-.906.402-.388.67-.906.67-1.553h-2.948v-1.036h3.886v.518zm6.165-3.236h-3.618v2.46h3.35v.905h-3.35v2.46h3.618v1.035h-4.69v-7.766h4.69v.906zm4.423 6.86H73.92v-6.86h-2.28v-.906h5.63v.906h-2.279v6.86zm6.165 0v-7.766h1.072v7.766h-1.072zm5.629 0h-1.072v-6.86h-2.279v-.906h5.495v.906h-2.278v6.86h.134zm12.732-1.035c-.804.776-1.743 1.165-2.949 1.165-1.206 0-2.144-.389-2.948-1.165-.804-.777-1.206-1.683-1.206-2.848 0-1.165.402-2.071 1.206-2.848.804-.776 1.742-1.165 2.948-1.165s2.145.389 2.949 1.165c.804.777 1.206 1.683 1.206 2.848 0 1.165-.402 2.071-1.206 2.848zm-5.093-.647c.536.517 1.34.906 2.144.906s1.608-.26 2.145-.906a3.07 3.07 0 00.938-2.201c0-.906-.268-1.683-.938-2.2-.537-.518-1.34-.906-2.145-.906-.804 0-1.608.258-2.144.906a3.07 3.07 0 00-.938 2.2c0 .906.268 1.683.938 2.2zm7.773 1.682v-7.766h1.206l3.887 6.084v-6.084h1.072v7.766h-1.072l-4.155-6.342v6.342h-.938zm-10.09 11.562c-3.178 0-5.693 2.457-5.693 5.87 0 3.277 2.515 5.87 5.693 5.87 3.177 0 5.692-2.457 5.692-5.87 0-3.55-2.515-5.87-5.692-5.87zm0 9.283c-1.721 0-3.178-1.501-3.178-3.55 0-2.047 1.457-3.549 3.178-3.549 1.72 0 3.177 1.365 3.177 3.55 0 2.048-1.456 3.55-3.177 3.55zm-12.312-9.283c-3.178 0-5.693 2.457-5.693 5.87 0 3.277 2.516 5.87 5.693 5.87 3.177 0 5.692-2.457 5.692-5.87 0-3.55-2.515-5.87-5.692-5.87zm0 9.283c-1.721 0-3.178-1.501-3.178-3.55 0-2.047 1.457-3.549 3.178-3.549 1.72 0 3.177 1.365 3.177 3.55 0 2.048-1.456 3.55-3.177 3.55zM65.1 31.708v2.457h5.692c-.132 1.365-.662 2.458-1.323 3.14-.795.82-2.119 1.775-4.37 1.775-3.574 0-6.221-2.867-6.221-6.553s2.78-6.553 6.222-6.553c1.853 0 3.31.819 4.369 1.774l1.72-1.774c-1.456-1.366-3.31-2.458-5.957-2.458-4.766 0-8.87 4.096-8.87 9.01 0 4.916 4.104 9.011 8.87 9.011 2.648 0 4.501-.819 6.09-2.594 1.589-1.638 2.118-3.959 2.118-5.734 0-.546 0-1.092-.132-1.501H65.1zm60.103 1.911c-.529-1.365-1.853-3.686-4.765-3.686-2.913 0-5.296 2.32-5.296 5.87 0 3.277 2.383 5.87 5.56 5.87 2.516 0 4.104-1.638 4.634-2.593l-1.854-1.365c-.661.955-1.456 1.638-2.78 1.638-1.324 0-2.118-.546-2.78-1.775l7.546-3.276-.265-.683zm-7.678 1.911c0-2.184 1.721-3.413 2.913-3.413.926 0 1.853.546 2.118 1.229l-5.031 2.184zm-6.222 5.598h2.515V24.062h-2.515v17.066zm-3.972-9.966c-.662-.683-1.721-1.366-3.045-1.366-2.78 0-5.428 2.594-5.428 5.87 0 3.277 2.516 5.735 5.428 5.735 1.324 0 2.383-.683 2.913-1.366h.132v.82c0 2.184-1.191 3.413-3.045 3.413-1.456 0-2.515-1.093-2.78-2.048l-2.118.956c.662 1.501 2.251 3.413 5.031 3.413 2.912 0 5.295-1.775 5.295-6.007V30.206h-2.383v.956zm-2.912 8.054c-1.721 0-3.178-1.501-3.178-3.55 0-2.047 1.457-3.549 3.178-3.549 1.721 0 3.045 1.502 3.045 3.55s-1.324 3.55-3.045 3.55zm32.302-15.154h-5.957v17.066h2.515V34.71h3.442c2.78 0 5.428-2.048 5.428-5.324 0-3.277-2.648-5.325-5.428-5.325zm.133 8.192h-3.575v-5.87h3.575c1.853 0 2.912 1.637 2.912 2.866-.132 1.502-1.191 3.004-2.912 3.004zm15.224-2.458c-1.853 0-3.707.82-4.369 2.594l2.251.956c.529-.956 1.324-1.229 2.25-1.229 1.324 0 2.516.82 2.648 2.185v.136c-.397-.273-1.456-.683-2.515-.683-2.383 0-4.766 1.366-4.766 3.823 0 2.321 1.986 3.823 4.104 3.823 1.721 0 2.515-.82 3.177-1.639h.133v1.366h2.383v-6.553c-.265-3.004-2.516-4.779-5.296-4.779zm-.265 9.42c-.794 0-1.986-.41-1.986-1.501 0-1.366 1.457-1.775 2.648-1.775 1.059 0 1.589.273 2.251.546-.265 1.638-1.589 2.73-2.913 2.73zm13.901-9.01l-2.78 7.372h-.133l-2.912-7.372h-2.648l4.369 10.376-2.515 5.734h2.515l6.752-16.11h-2.648zm-22.241 10.922h2.515V24.062h-2.515v17.066z" fill="#000"/><path d="M15.53 10.795c-.398.402-.531 1.073-.531 1.877V42.31c0 .805.265 1.475.663 1.878l.132.134 16.438-16.63v-.267l-16.703-16.63z" fill="url(#paint0_linear)"/><path d="M37.53 33.323l-5.434-5.498v-.402l5.435-5.499.132.134 6.495 3.755c1.856 1.073 1.856 2.817 0 3.89l-6.627 3.62z" fill="url(#paint1_linear)"/><path d="M37.657 33.189l-5.568-5.632-16.57 16.762c.663.671 1.591.671 2.784.135l19.354-11.265" fill="url(#paint2_linear)"/><path d="M37.672 21.924L18.32 10.794c-1.193-.67-2.121-.537-2.784.134l16.57 16.629 5.567-5.633z" fill="url(#paint3_linear)"/><path opacity=".2" d="M37.524 33.055L18.304 44.05c-1.061.67-1.99.537-2.652 0l-.132.134.132.134c.663.537 1.59.671 2.651 0l19.221-11.264z" fill="#000"/><path opacity=".2" d="M15.53 44.051c-.398-.402-.531-1.073-.531-1.877v.134c0 .805.265 1.475.663 1.877v-.134h-.133zM44.161 29.3l-6.628 3.755.132.134 6.496-3.755c.928-.536 1.325-1.207 1.325-1.877 0 .67-.53 1.207-1.325 1.743z" fill="#000"/><path opacity=".2" d="M18.313 10.928l25.849 14.885c.795.537 1.325 1.073 1.325 1.744 0-.67-.397-1.341-1.325-1.878L18.313 10.794c-1.856-1.073-3.314-.268-3.314 1.877v.134c0-2.011 1.458-2.95 3.314-1.877z" fill="#fff"/></g><defs><linearGradient id="paint0_linear" x1="30.641" y1="12.418" x2="8.136" y2="34.662" gradientUnits="userSpaceOnUse"><stop stop-color="#00A0FF"/><stop offset=".007" stop-color="#00A1FF"/><stop offset=".26" stop-color="#00BEFF"/><stop offset=".512" stop-color="#00D2FF"/><stop offset=".76" stop-color="#00DFFF"/><stop offset="1" stop-color="#00E3FF"/></linearGradient><linearGradient id="paint1_linear" x1="46.59" y1="27.558" x2="14.514" y2="27.558" gradientUnits="userSpaceOnUse"><stop stop-color="#FFE000"/><stop offset=".409" stop-color="#FFBD00"/><stop offset=".775" stop-color="orange"/><stop offset="1" stop-color="#FF9C00"/></linearGradient><linearGradient id="paint2_linear" x1="34.644" y1="30.636" x2="4.127" y2="60.801" gradientUnits="userSpaceOnUse"><stop stop-color="#FF3A44"/><stop offset="1" stop-color="#C31162"/></linearGradient><linearGradient id="paint3_linear" x1="11.422" y1=".972" x2="25.05" y2="14.443" gradientUnits="userSpaceOnUse"><stop stop-color="#32A071"/><stop offset=".069" stop-color="#2DA771"/><stop offset=".476" stop-color="#15CF74"/><stop offset=".801" stop-color="#06E775"/><stop offset="1" stop-color="#00F076"/></linearGradient><clipPath id="clip0"><rect x=".001" y=".289" width="183.999" height="55.173" rx="25" fill="#fff"/></clipPath></defs></svg>